<svg xmlns="http://www.w3.org/2000/svg" viewBox="0 0 255.99 255.99" width="250" height="250" xmlns:v="https://vecta.io/nano"><path d="M13.36 74.9c-2.126.179-3.982 1.888-1.33 4.75 5.094 2.877-5.024 4.995-2.07 6.92.942 2.028-.075 4.286-2.83 4.65-4.035.348-3.652 5.858.28 2.97 4.388-1.393.758.551-1.31.95-4.644 1.352-7.808 5.991-5.11 10.23 2.58 5.837 3.268 12.348 5.27 18.42 3.313 9.339 8.153 18.225 14.44 25.9 2.985 4.352 7.349 7.444 11.45 10.67 4.035 2.616 8.527 5.234 13.12 6.57 8.156 2.985 16.909 3.264 25.48 3.94 5.222-.01 10.464-.378 15.62-1.3 4.639.502 7.977-3.464 12.17-1.37 2.54-2.253 6.24-1.272 8.78-2.91 1.879-6.39-6.453-1.267-9.09-4.39-2.867 3.369-5.273-.37-8.75.68-5.919.297.448-2.652.3-5.36-3.139-2.406-6.683 3.304-8.69 4.84-4.956-.896-9.863-2.305-14.41-4.45-5.181-2.698-10.267-5.908-14.02-10.46-3.927-4.649-8.268-9.35-10.06-15.32-3.789-9.856-3.542-20.527-4.51-30.88.358-7.009 7.76.754 10.96-1.78-1.096-3.635-6.934-4.786-10.16-6.24-3.113-.215-4.247-3.005-7.56-3.23.159-3.891-6.087-1.75-8.36-4.52 2.237-5.775-7.413.137-6.66-4.86 1.572-3.249-.824-4.599-2.95-4.42zm.03.49c.505-.126 1.085-.025 1.67.44 2.775 3.738-5.104-.429-2.37 3.14-1.663-.78-.814-3.202.7-3.58zm201.21 1.85c-.343 0-1.241.468-2.69 1.42-1.792 1.157-3.684 2.07-5.66 2.73-1.239.425-1.85 1.017-1.85 1.78 0 .527.43.938 1.3 1.23 1.848.609 3.061 1.45 3.64 2.53.425.845.64 2.344.64 4.51v34.59c0 3.031-.731 4.731-2.18 5.1-1.613.42-2.42 1.041-2.42 1.86 0 .343.029.616.08.8.128.527.988.723 2.57.59 6.282-.502 10.743-.626 13.38-.39.845.082 1.36.043 1.56-.1s.3-.521.3-1.13c0-.768-.621-1.231-1.86-1.39-2.007-.21-3.287-.501-3.84-.87-.788-.527-1.219-1.63-1.27-3.32l-.07-3.88c0-1.265.621-2.244 1.86-2.93 1.106-.794 1.879-1.19 2.33-1.19.369 0 .674.22.91.64 2.903 4.91 6.442 9.605 10.61 14.09.63.66 1.69.842 3.17.55 2.985-.236 5.392-.364 7.24-.39 1.239-.051 1.86-.548 1.86-1.47 0-.737-.148-1.191-.44-1.36s-1.037-.26-2.25-.26c-1.633 0-3.396-.802-5.27-2.41-2.929-2.555-6.043-6.348-9.34-11.36-.896-1.398-1.34-2.281-1.34-2.65 0-.236.1-.431.31-.59 2.847-2.847 5.531-4.843 8.04-5.98a14.65 14.65 0 0 1 5.74-1.39c1.295-.077 1.94-.564 1.94-1.46 0-.952-.411-1.444-1.23-1.47a748.97 748.97 0 0 1-7.56-.04c-3.64-.026-6.41-.164-8.31-.43-.845-.133-1.313.268-1.39 1.19-.051.922.388 1.432 1.31 1.54 2.135.292 3.2.788 3.2 1.5 0 .394-.315.93-.95 1.59-3.195 2.77-5.879 5.005-8.07 6.72-.819.686-1.426 1.03-1.82 1.03-.369 0-.56-.344-.56-1.03l-.07-24.77.04-7.76.04-3.92c0-1.372-.55-2.05-1.63-2.05zm-90.35.28c-.42 0-1.428.468-3.01 1.42-1.925 1.213-3.788 2.111-5.58 2.69-1.188.394-1.78.996-1.78 1.79 0 .527.411.928 1.23 1.22 1.556.553 2.64 1.336 3.26 2.34s.94 2.575.94 4.71v35.81c0 2.161-.721 3.465-2.16 3.9s-2.15.965-2.15 1.6c0 .712.119 1.151.37 1.31.251.154.92.178 2 .07 5.386-.451 9.89-.493 13.53-.15 1.188.128 1.78-.335 1.78-1.39 0-.763-.587-1.212-1.78-1.34-1.925-.236-3.286-.723-4.08-1.45s-1.19-1.892-1.19-3.5l-.15-35.34c-.031-2.529-.007-5.109.07-7.72l.16-3.96c0-1.347-.482-2.01-1.46-2.01zm-52.63 4.16c-.292.051-.497.328-.63.83-.261.819.135 1.464 1.19 1.94 1.684.768 2.84 1.623 3.46 2.56s.93 2.279.93 4.02v33.88c0 4.25-1.294 6.518-3.88 6.81-1.132.108-1.7.494-1.7 1.18 0 1.085.563 1.549 1.7 1.39 4.06-.553 9.218-.572 15.47-.07 2.161.184 3.321-.16 3.48-1.03.159-.998-.41-1.567-1.7-1.7-2.529-.317-4.177-.676-4.94-1.07-.978-.476-1.47-1.379-1.47-2.7v-17.8c0-.338.234-.52.71-.52 4.193 0 7.231.115 9.09.34s3.134 1.993 3.82 5.29c.189.87.643 1.257 1.38 1.18.896-.051 1.336-.414 1.31-1.1-.266-5.75-.027-10.421.71-14.01.133-.635-.254-1.046-1.15-1.23-1.055-.236-1.666.175-1.85 1.23-.292 1.93-.588 3.119-.89 3.58s-.9.743-1.77.85c-4.46.292-7.86.454-10.21.48-.763.026-1.14-.261-1.14-.87V87.21c0-.609.124-1.006.39-1.19.425-.292 1.328-.43 2.7-.43 5.99 0 9.725.114 11.23.35 1.398.184 2.525.734 3.37 1.63.717.763 1.466 2.105 2.26 4.03.287.712.803 1.07 1.54 1.07s1.1-.411 1.1-1.23c.102-4.168.379-7.134.83-8.9a2.08 2.08 0 0 0 .05-.34c0-.394-.884-.548-2.65-.44-5.304.317-11.599.48-18.88.48-6.175 0-10.096-.134-11.76-.4-1.137-.184-1.834-.237-2.1-.16zm-52.21.94c.707.15.95.571-.99.83l-.78-.04c-.102-.817 1.063-.94 1.77-.79zm-.78 2.73c1.403.614 4.279.899 4.75 2.44-2.872-1.495.572 1.801-1.84 1.74-1.3.015-3.709-2.777-2.91-4.18zm-.72 2.32c3.251 2.473-1.812-.001-3.87 1.55-3.241.328 3.553-1.826 3.87-1.55zm8.59 1.48c.415.115.415.507-.27 1.33 2.519 3.011.565 1.995-1.15-.14 1.505 1.039.344 5.527-1.97 2.44-1.638-3.052-2.676-.989-.94 1.1-1.705-3.21-6.64-1.839-10.25-.61-2.33-.256 6.054-1.99 6.96-2.4 1.402.027 6.375-2.064 7.62-1.72zm10.1 3.4c1.03-.013 2.045.025 3.05.11 1.613 1.879-1.221 5.06-4.17 5.27-3.584 1.341-7.232 1.67-10.56 2.11-4.27-.538-7.336 3.304-11.76 3.79 1.178-2.181-.967-.752-3.21-.86 1.142 4.403-7.9-1.17-2.56-2.23-4.004-1.423-4.06 2.784-3.64 5.18h-.27c-3.666-4.721.411-6.646 5.05-7.25-.881 2.176 1.267 2.876 3.33 3.27 3.343-.922-2.199-1.514.33-2.39 1.388-.256-4.424-1.39.42-2.04 4.966-.835 9.435-2.786 14.36-3.81 3.333-.66 6.541-1.11 9.63-1.15zm-1.1 1.12c-.438-.136-1.458.138-1.98 1.51.379.865.567-.253.49-.55 1.789-.274 1.928-.824 1.49-.96zm-10.33 1.84c-1.433-.066-3.781.244-4.61 1.24 1.055.481 2.215-1.332 3.73-.19 2.829-.538 2.313-.984.88-1.05zm20.46.26c.716-.117 2.934.711 2.15 2.1-.538.154-.446-.657-.84-.79-1.624-.828-1.74-1.24-1.31-1.31zm-27.78 1.92c-.374 0-.674.169-.71.63l.72.66c2.876.234 1.113-1.289-.01-1.29zm-1.61 1.32c-.534-.078-1.029.218-1.3 1.22.502-.123 1.299.167 1.78.53 3.034 2.074 1.122-1.516-.48-1.75zm19.51.49c2.663-.521 1.886 6.371 1.03 8.49 1.613-1.101 1.302 5.116.78 7.43.881-1.183 1.243 1.914.26 4.1.082-.358 2.13-.671.62 1.92-1.152-2.54-1.652 5.166-.91 1.71 2.033-3.267 1.5-.174 2.12 1.27.399 2.995 1.736 5.758 2.14 8.41 1.879 1.894-.8.61-.79 3.17.609-.742 3.095 1.043 3.08 3.7.205-4.214.447-.986 2.5.11 1.715 2.765 3 5.352 5.56 7.63 1.997 2.309-.125.687.74 2.1 2.12 3.758 7.03 5.937 11.28 6.92 1.864 2.427 4.661 4.841 8.45 3.74-3.205 1.976 9.027 2.514 4.89 3.63-2.15 1.167-4.191-.752-6.29-.65-2.918-1.004-7.532-4.079-10.66-1.99-4.326 2.708 2.217-3.02-1.29-.46-3.553 4.265-2.414-2.654-5.88-.58-.2-.66-3.081-.843-.9-2.01-1.956-.123-.737-.248-.03-1.81-.84-.174-5.507-.009-7.34-1.54-2.161-2.811.377-1.67 2.63-1.26-3.615.635 1.243 2.712 3.66 1.56-1.085-.461-2.328-2.807-5.2-4.86-4.014-2.417-7.317-3.57-11.48-5.5-4.506-2.673 1.008-.948 2.57.46 4.495 1.981 2.726-2.781.12-4.02-2.857.118-3.591-3.164-5.88-2.98 3.615.579 6.124-.935 2.1-4.57-3.825-4.465 1.597 3.369-.63 2.36-1.014-1.336-.254-3.259-3.49-3.95-.036 1.234-.443 3.146-1.15.55-.901.154-1.933 1.143-2.67-1.53.696-3.036-3.007-3.73-3.58-5.67 3.2 2.043 4.648.432 2.38-1.8-1.562-2.729-1.78-.589-2.65-.21-3.139 3.205-.287-5.529-1.68-3.01-1.403-.041-.596 1.544-.57 3.51-4.588-1.137 1.114 2.414 2.44 4.37-2.094-2.191-1.739 1.643-3.49-.18-.594-1.613-.677-4.159-3.59-4.61 3.313-1.147-1.97-3.477-1.53-3.6 1.894-1.725 2.136-4.097 4.42-.39-2.893-.236-.082 4.775.63 3.28-.113-2.565 1.182-5.257-3.19-6.44-1.285 1.731-3.5-3.39-.93-2.31-.338-3.4 3.986-1.395 3.71-2.87 2.232-.978-2.702-4.135-.04-5.4 2.038 1.239 7.323-1.95 3.77-2.39 2.222-.02 4.004.953 4.24-1.3 1.797.389 6.659 1.937 2.24-.5 1.413-.701 4.4-1.294 6.12-1.32.531-.413.98-.636 1.36-.71zm151.75 2.86c-3.4 0-6.117.759-8.15 2.29-2.191 1.587-3.28 3.798-3.28 6.65 0 2.319.702 4.168 2.1 5.54 1.29 1.29 3.86 2.795 7.71 4.51 2.662 1.162 4.458 2.18 5.38 3.05a3.69 3.69 0 0 1 1.27 2.85c0 2.586-1.858 3.88-5.58 3.88-4.408 0-7.604-1.724-9.58-5.18-.451-.763-.995-1.107-1.63-1.03-.635.051-.95.772-.95 2.17 0 3.246.11 5.061.32 5.43.343.394 1.585.824 3.72 1.3 2.478.527 4.962.8 7.44.8 3.722 0 6.66-.831 8.81-2.48s3.22-3.864 3.22-6.66c0-2.529-.788-4.549-2.36-6.07-1.213-1.157-3.511-2.471-6.89-3.92-3.22-1.398-5.26-2.43-6.13-3.09-.978-.768-1.47-1.785-1.47-3.08 0-2.319 1.805-3.48 5.42-3.48 3.195 0 5.836 1.695 7.92 5.1.292.476.87.624 1.74.44.814-.21 1.187-.487 1.11-.83-.66-2.796-1.1-4.93-1.31-6.41-.082-.502-1.07-.927-2.97-1.27-1.766-.338-3.725-.51-5.86-.51zm-32.94.16c-3.113 0-6.351.894-9.73 2.66-3.22 1.69-4.83 3.165-4.83 4.43 0 2.028 1.084 2.94 3.25 2.73 1.9-.159 3.356-1.257 4.37-3.29s2.093-3.05 3.23-3.05c3.983 0 5.889 2.174 5.73 6.5l-.07 2.53c-.026 1.106-.938 1.837-2.73 2.18-10.45 1.981-15.67 5.248-15.67 9.81 0 2.401.788 4.302 2.37 5.7 1.449 1.265 3.254 1.9 5.42 1.9 2.294 0 4.582-.54 6.85-1.62s3.525-1.63 3.76-1.63c.317 0 .866.506 1.66 1.51.788 1.004 1.701 1.5 2.73 1.5 1.213 0 2.833-.559 4.85-1.68s3.03-1.957 3.03-2.51c0-1.029-.387-1.545-1.16-1.55-.133 0-.601.067-1.42.2s-1.368.2-1.66.2c-1.475 0-2.206-.855-2.18-2.57l.16-16.31c.051-5.094-2.604-7.64-7.96-7.64zm-119.1 1.21c-.673.193-1.726 3.771-1 5.05 1.597 2.545 3.196-6.254 1.88-3.3-.707 3.763-1.429 2.191-.41-.61-.061-.9-.246-1.204-.47-1.14zm-22.48 3.33c.254-.011.701.009 1.39.08 3.553-.123 2.412 1.972.39 2.11-.046.133-1.853-.433-1.1-.93 4.874.618-2.461-1.18-.68-1.26zm8.95 1.24c.296.664.799 1.914.42 2.47.998.988 4.409 2.747 1.67.33 1.746-.348-.231-.901-1.27-1.73-1.206-1.81-1.116-1.734-.82-1.07zm-11.59.09c.806-.031 1.634.383.07 1.34-1.661-.832-.876-1.309-.07-1.34zm22.73 2.33c-.052-.074-.079-.008-.02.35.603 1.352.175-.129.02-.35zm-12.11 1.35c.471.681 1.746.379 2.34 1.04 5.366 2.222-.481-1.439-2.34-1.04zm-.84.42c-.264.06-.217.411.37 1.22.369.835 1.258.905 2 1.1 5.757 2.654-1.226-2.58-2.37-2.32zm-9.91.45c.875.143 1.927.614.77 1.07l-.47-.18c-1.871-.852-1.175-1.033-.3-.89zm8.14.7c-.262.014-.037.407 1.18 1.49l.79.81c3.994 1.094-1.184-2.341-1.97-2.3zm-.54 1.07c-.206-.007 1.646 1.975.79 1.94-2.964-2.166-1.754-.634-.08 1.03 1.818 2.698 3.319-1.607.36-2.15-.704-.591-1.001-.818-1.07-.82zm12.58 2.82c-.038.124-.044.541.03 1.45.495.449.083-1.821-.03-1.45zm2.62.23c-.639.004-1.118 4.532.46 5.48.65 1.869 1.344 1.1 1.58-1.02-1.526.031.628-3.32-1.42-2.66-.179-1.304-.407-1.801-.62-1.8zm4.41.1c-.115-.254-.39.301-.49 2.16v.53c.553-1.375.605-2.436.49-2.69zm-29.9.15c.405-.097 2.711 4.574 2.4 5.86-1.413-.492-1.345-2.703-2-3.87-.454-1.394-.535-1.958-.4-1.99zm16.85.23c-.374 1.039.793 4.448 1.5 5.61 1.802 2.77.994-1.515 2.97 1.25-1.085-2.427.51-1.106.28-2.14-.502-1.044-5.362-6.573-3.15-2.4 2.002 4.977-1.257-.625-1.6-2.32zm-17.8.81c.541.349 1.991 2.708 2.26 4.02 2.278 2.744 1.38 4.256 3.74 7.62-3.036-1.915-3.61-6.486-5.54-9.44-.789-1.895-.785-2.409-.46-2.2zm148.93.62c.261.02.466.085.63.19.333.21.486.64.46 1.3l-.08 6.5c0 .819-.817 1.521-2.45 2.1-1.398.502-2.759.75-4.08.75-3.297 0-4.95-1.514-4.95-4.55 0-3.011 3.181-5.083 9.54-6.22a3.66 3.66 0 0 1 .93-.07zm-132.17 7.98c1.221.383.483 4.378 2.32 4.92 4.101 5.35-2.841.157-5.16-.36.297-.015-2.059-.67-1.04-.9-.742-.763-2.404-3.533 1.39-1.68 3.016 1.51 3.269.491 1.83-1.91.268-.113.486-.125.66-.07zm-13.84.78c.102-.511 2.19 2.848 2.57 4.25 1.147 3.651 4.736 5.753 5.1 8.17 3.978 2.294 1.937 6.035 5.28 7.09 1.485-.753 1.631 4.506 4.79 3.41-1.756.824.739 1.799 1.62 3.33 1.992-.271 6.357 4.388 2.01 2.78-1.833-.389-3.085-2.296-4.38-3.54-3.845-2.442-6.341-6.528-8.45-10.44-2.719-4.111-5.991-8.222-7.85-13.03-.545-1.248-.724-1.85-.69-2.02zm30.55 3.09c-.203.104-.213.711.38 2.04l.35.57c.483-1.571-.392-2.783-.73-2.61zm-13.83 4.7c1.132.246 2.834.854 3.52.99.189.814-3.878.688-.32 2.28-2.074-.056-2.699-.212.26 1.6-1.162.932 2.343 1.672 1.14 3.07 3.569 2.785-.644.707-2.17-.43-.901-.625-4.573-1.866-4-2.68 4.332 2.273 1.1-.1-.81-1.61 3.492.855-2.798-2.586.53-1.68.988.241-1.496-2.039 1.76-.38-1.603-1.295-1.042-1.406.09-1.16zm21.72 8.73c-.446-.157-.005 1.569.99 2.61 2.12 2.524.507-1.433-.23-1.73-.358-.564-.611-.828-.76-.88zm-18.7 2.48c1.18.013 3.11.545 4.3 1.18 5.222 1.162-1.111 2.563-3.2.96l-.88-.19c-1.825-1.449-1.4-1.963-.22-1.95zm6.24.55c.434-.093 2.408.719 3.25 1.5 2.504.338 2.515 1.482-.25.77-.492-.302-1.284-.285-1.54-.92-1.425-.91-1.721-1.294-1.46-1.35zm3.33.04c.79-.013 2.083.211 2.49.81 5.484.881-.347 1.264-1.97-.18-1.595-.366-1.31-.617-.52-.63zm0 3.09c.593-.131 4.464 1.467 1.68 1.11l-.81-.26c-.9-.564-1.068-.806-.87-.85zm18.45.93c.173.061.348.219.47.53-1.44-.023-.988-.712-.47-.53zm-18.43 1.5c1.125.109 5.452 2.473 1.62 1.39l-.59-.23-.67-.31c-.759-.675-.735-.886-.36-.85zm9.31 6.23c.52-.083 4.789.305 1.16.27-1.092-.166-1.333-.242-1.16-.27zm-11.35.63c.307.069.794.219 1.51.48 4.582 2.831 9.865 4.329 14.76 6.51 4.301.563 8.836 1.701 13.07.79 3.533 1.766 7.197-.457 10.74 1.14-7.828 1.526-15.882-.145-23.68-1.23-4.915-.62-9.305-2.66-13.79-4.6-.65-.307-1.265-.692-1.89-1.05-3.082-1.71-2.7-2.059.3-.38 1.06.845 8.579 3.923 5 1.89-1.353-.336-8.172-4.031-6.02-3.55zm28.5 1.36c.351.225.363.961.35 1.89-2.355 2.601-.951-1.063-2.41.35-1.347 1.075-1.027-.64-.3-1.05 1.318-1.129 2.009-1.415 2.36-1.19zm19.63.83c2.102.181 4.507.667 5.9.7-.845 1.777-6.066.144-8.36.61l-.99-.06-.61-.1c.161-1.208 1.958-1.331 4.06-1.15zm18.08.57c5.437-.005.359.79-2.14.78-2.836-.666 1.285-.647 2.14-.78zm-32.75.71c.435-.049.584.294-.65 1.09l-.45.14c-.061-.748.665-1.181 1.1-1.23zm-2.07.32c.08.124-.099.478-.79 1.21-2.012.131.55-1.581.79-1.21zm-19.62.56c.491-.123 5.78 1.402 6.46 1.26 5.391 2.002-3.218.651-5-.47-1.251-.529-1.624-.749-1.46-.79zm26.05.26c.012.134-.269.449-1.06 1.02l-.66.43c-.937-.649 1.685-1.853 1.72-1.45z" fill="#fff"/></svg>