<svg xmlns="http://www.w3.org/2000/svg" viewBox="0 0 255.99 255.99" width="240" height="240" xmlns:v="https://vecta.io/nano"><path d="M91.755 101.984l-26.171 14.48c-.981.539-1.584 1.541-1.584 2.624v28.976c0 1.083.603 2.08 1.584 2.624l26.176 14.491a3.3 3.3 0 0 0 3.163 0l26.171-14.491c.971-.544 1.573-1.541 1.573-2.624v-28.976c0-1.083-.603-2.08-1.584-2.624l-26.165-14.48a3.27 3.27 0 0 0-1.584-.405c-.549 0-1.093.133-1.584.405m134.656 26.085l-4.363 2.411c-.165.091-.261.256-.261.437v4.832c0 .181.101.347.261.437l4.363 2.416c.165.091.363.091.528 0l4.363-2.416c.16-.091.261-.256.261-.437v-4.832a.5.5 0 0 0-.267-.437l-4.363-2.411c-.08-.048-.171-.069-.261-.069s-.181.021-.261.069" fill="#388e3c"/><path d="M190.672 71.275l-12.741-7.109c-.4-.224-.891-.219-1.285.016a1.3 1.3 0 0 0-.64 1.115L176 108.24l-11.749-6.501a3.27 3.27 0 0 0-3.168 0h.005l-26.171 14.48c-.981.539-1.584 1.541-1.584 2.619v28.976c0 1.083.603 2.08 1.584 2.624l26.176 14.491a3.3 3.3 0 0 0 3.163 0l26.171-14.491c.971-.539 1.573-1.541 1.573-2.624V73.536a2.6 2.6 0 0 0-1.328-2.261zm-15.387 69.835l-11.893 6.587a1.49 1.49 0 0 1-1.435 0l-11.899-6.587a1.36 1.36 0 0 1-.725-1.195v-13.173c0-.491.272-.944.72-1.195l11.899-6.581h-.005a1.49 1.49 0 0 1 .72-.181 1.55 1.55 0 0 1 .72.181l11.893 6.581a1.38 1.38 0 0 1 .72 1.2v13.173a1.37 1.37 0 0 1-.715 1.189z" fill="#fff"/><path d="M91.755 101.984L64 148.064c0 1.083.603 2.08 1.584 2.624l26.176 14.491a3.3 3.3 0 0 0 3.163 0l27.744-46.091c0-1.083-.603-2.08-1.584-2.624l-26.165-14.48a3.27 3.27 0 0 0-1.584-.405c-.549 0-1.093.133-1.584.405" fill="#2e7d32"/><path d="M91.755 101.984l-26.171 14.48c-.981.539-1.584 1.541-1.584 2.624l27.755 46.091a3.3 3.3 0 0 0 3.163 0l26.171-14.491c.976-.544 1.579-1.541 1.579-2.624l-27.749-46.08a3.27 3.27 0 0 0-1.584-.405c-.549 0-1.093.133-1.584.405" fill="#4caf50"/><path d="M254.416 116.219l-26.165-14.48a3.27 3.27 0 0 0-3.168 0h.005l-26.171 14.48a3.06 3.06 0 0 0-1.584 2.683v28.859c0 1.115.608 2.144 1.584 2.683l26.176 14.491a3.27 3.27 0 0 0 3.163 0l12.069-6.683c1.104-.613 1.099-2.197-.011-2.805l-26.261-14.331c-.443-.251-.72-.715-.72-1.216v-13.152c0-.491.267-.944.693-1.179l11.92-6.592h-.005a1.49 1.49 0 0 1 .72-.181 1.55 1.55 0 0 1 .72.181l11.92 6.597c.427.235.693.688.693 1.179v10.731c0 .459.245.885.645 1.115a1.31 1.31 0 0 0 1.291-.005l12.789-7.429c.789-.459 1.28-1.307 1.28-2.224v-10.027a3.07 3.07 0 0 0-1.584-2.693zm-197.333 0l-26.165-14.48a3.27 3.27 0 0 0-3.168 0h.005l-26.171 14.48A3.06 3.06 0 0 0 0 118.901v39.813c0 .459.245.885.645 1.115a1.31 1.31 0 0 0 1.291-.005l12.789-7.429A2.57 2.57 0 0 0 16 150.171v-23.429c0-.491.267-.944.693-1.179l11.92-6.592h0a1.49 1.49 0 0 1 .72-.181 1.55 1.55 0 0 1 .72.181l11.92 6.597c.427.235.693.688.693 1.179v23.429c0 .917.485 1.765 1.28 2.224l12.789 7.429a1.31 1.31 0 0 0 1.291.005c.395-.235.64-.661.64-1.12v-39.808a3.07 3.07 0 0 0-1.584-2.688z" fill="#fff"/></svg>